<?xml version="1.0" encoding="utf-8"?>
<!-- Generator: Adobe Illustrator 25.2.3, SVG Export Plug-In . SVG Version: 6.00 Build 0)  -->
<svg version="1.1" id="Calque_1" xmlns="http://www.w3.org/2000/svg" xmlns:xlink="http://www.w3.org/1999/xlink" x="0px" y="0px"
	 viewBox="0 0 595.3 841.9" style="enable-background:new 0 0 595.3 841.9;" xml:space="preserve">
<style type="text/css">
	.st0{fill:url(#XMLID_2_);}
	.st1{fill:url(#XMLID_3_);}
	.st2{fill:url(#XMLID_4_);}
	.st3{opacity:0.73;fill:url(#XMLID_5_);}
	.st4{fill:#FFFFFF;stroke:#223870;stroke-miterlimit:10;}
</style>
<g id="XMLID_1307_">
	<g id="XMLID_77_">
		
			<linearGradient id="XMLID_2_" gradientUnits="userSpaceOnUse" x1="542.1174" y1="490.902" x2="302.4449" y2="490.902" gradientTransform="matrix(0 1 -1 0 788.5398 17.5542)">
			<stop  offset="5.102000e-03" style="stop-color:#121622"/>
			<stop  offset="0.2481" style="stop-color:#192231"/>
			<stop  offset="0.7525" style="stop-color:#24384D"/>
			<stop  offset="1" style="stop-color:#284158"/>
		</linearGradient>
		<path id="XMLID_240_" class="st0" d="M177.8,554.6V325.1c0-2.8,2.3-5.1,5.1-5.1h229.4c2.8,0,5.1,2.3,5.1,5.1v229.4
			c0,2.8-2.3,5.1-5.1,5.1H182.9C180.1,559.7,177.8,557.4,177.8,554.6z"/>
		
			<radialGradient id="XMLID_3_" cx="422.2818" cy="490.902" r="116.382" gradientTransform="matrix(0 1 -1 0 788.5398 17.5542)" gradientUnits="userSpaceOnUse">
			<stop  offset="0" style="stop-color:#FFFFFF"/>
			<stop  offset="0.506" style="stop-color:#FEFEFE"/>
			<stop  offset="0.696" style="stop-color:#F8FBFC"/>
			<stop  offset="0.8329" style="stop-color:#EEF5F9"/>
			<stop  offset="0.9434" style="stop-color:#E0ECF2"/>
			<stop  offset="1" style="stop-color:#D5E5EE"/>
		</radialGradient>
		<path id="XMLID_239_" class="st1" d="M181.3,552.1V327.6c0-2.3,1.8-4.1,4.1-4.1h224.5c2.3,0,4.1,1.8,4.1,4.1v224.5
			c0,2.3-1.8,4.1-4.1,4.1H185.4C183.1,556.2,181.3,554.4,181.3,552.1z"/>
		
			<radialGradient id="XMLID_4_" cx="249.1424" cy="594.5406" r="140.1014" gradientTransform="matrix(0.7071 0.7071 -0.7071 0.7071 541.8689 -156.7329)" gradientUnits="userSpaceOnUse">
			<stop  offset="0" style="stop-color:#3B7CBF"/>
			<stop  offset="0.3578" style="stop-color:#3A7ABE"/>
			<stop  offset="0.5514" style="stop-color:#3675BA"/>
			<stop  offset="0.7058" style="stop-color:#316BB3"/>
			<stop  offset="0.8394" style="stop-color:#2A5FAA"/>
			<stop  offset="0.9585" style="stop-color:#244F9E"/>
			<stop  offset="1" style="stop-color:#214899"/>
		</radialGradient>
		<rect id="XMLID_219_" x="198.6" y="340.8" class="st2" width="198.1" height="198.1"/>
		<linearGradient id="XMLID_5_" gradientUnits="userSpaceOnUse" x1="297.6378" y1="438.21" x2="297.6378" y2="344.2239">
			<stop  offset="5.619050e-03" style="stop-color:#4F4F4F"/>
			<stop  offset="1" style="stop-color:#6B6B6B"/>
		</linearGradient>
		<path id="XMLID_174_" class="st3" d="M297.6,438.2c-31.6,0-63.7-2.2-95.6-6.5v-87.5h191.2v87.5C361.4,436,329.2,438.2,297.6,438.2
			z"/>
		<g>
			<path class="st4" d="M222.6,481.4v-22.2c4,3.4,8.4,5.9,13.1,7.6s9.5,2.5,14.3,2.5c2.8,0,5.3-0.3,7.4-0.8c2.1-0.5,3.9-1.2,5.3-2.1
				c1.4-0.9,2.5-2,3.2-3.2c0.7-1.2,1-2.6,1-4c0-1.9-0.6-3.7-1.7-5.2s-2.6-2.9-4.5-4.2c-1.9-1.3-4.2-2.5-6.8-3.7
				c-2.6-1.2-5.5-2.4-8.5-3.7c-7.8-3.2-13.6-7.2-17.4-11.9c-3.8-4.7-5.7-10.3-5.7-16.9c0-5.2,1-9.6,3.1-13.3
				c2.1-3.7,4.9-6.8,8.5-9.2c3.6-2.4,7.7-4.2,12.4-5.3s9.7-1.7,15-1.7c5.2,0,9.8,0.3,13.8,0.9c4,0.6,7.7,1.6,11.1,2.9v20.7
				c-1.7-1.2-3.5-2.2-5.4-3.1c-2-0.9-4-1.6-6.1-2.2s-4.1-1-6.2-1.3c-2.1-0.3-4-0.4-5.9-0.4c-2.5,0-4.9,0.2-6.9,0.7
				c-2.1,0.5-3.8,1.2-5.3,2c-1.4,0.9-2.5,1.9-3.3,3.2c-0.8,1.2-1.2,2.6-1.2,4.1c0,1.7,0.4,3.2,1.3,4.5c0.9,1.3,2.1,2.6,3.7,3.7
				c1.6,1.2,3.6,2.3,5.9,3.5c2.3,1.1,4.9,2.3,7.8,3.5c4,1.7,7.5,3.4,10.7,5.3c3.2,1.9,5.9,4,8.1,6.3c2.3,2.4,4,5.1,5.2,8.1
				c1.2,3,1.8,6.6,1.8,10.6c0,5.5-1.1,10.2-3.2,14c-2.1,3.8-5,6.8-8.6,9.2s-7.8,4-12.6,5s-9.8,1.5-15.1,1.5
				c-5.5,0-10.6-0.5-15.6-1.4S226.2,483.2,222.6,481.4z"/>
			<path class="st4" d="M329.2,450.9v34.3h-22.4v-99.4h35.1c25.1,0,37.6,10.6,37.6,31.7c0,10-3.6,18.1-10.8,24.2
				c-7.2,6.2-16.8,9.3-28.8,9.3H329.2z M329.2,402.9v31h8.8c11.9,0,17.9-5.2,17.9-15.7c0-10.2-6-15.3-17.9-15.3H329.2z"/>
		</g>
	</g>
</g>
</svg>
